<?xml version="1.0" encoding="utf-8"?>
<!-- Generator: Adobe Illustrator 24.1.2, SVG Export Plug-In . SVG Version: 6.00 Build 0)  -->
<svg version="1.1" id="Laag_1" xmlns="http://www.w3.org/2000/svg" xmlns:xlink="http://www.w3.org/1999/xlink" x="0px" y="0px"
	 viewBox="0 0 1149 657" style="enable-background:new 0 0 1149 657;" xml:space="preserve">
<style type="text/css">
	.st0{fill:#A42B3E;}
	.st1{fill:#FFFFFF;}
	.st2{fill:none;}
	.st3{font-family:'Barlow-Bold';}
	.st4{font-size:106.2755px;}
</style>
<circle class="st0" cx="293.6" cy="304.6" r="160.6"/>
<g>
	<path class="st1" d="M369.2,265.7c-24.3-39.9-60.9-12.2-60.9-12.2c-2.4,1.8-6.8,3.3-9.7,3.3l-9.8,0c-3,0-7.4-1.5-9.7-3.3
		c0,0-36.6-27.8-60.9,12.1c-24.3,39.9-14.5,83.4-14.5,83.4c1.7,10.6,7.4,17.7,18,16.9c10.6-0.9,33.7-28.7,33.7-28.7
		c1.9-2.3,5.9-4.2,8.9-4.2l58.8,0c3,0,7,1.9,8.9,4.2c0,0,23.1,27.8,33.8,28.7c10.7,0.9,16.3-6.2,18-16.9
		C383.7,349.1,393.6,305.6,369.2,265.7z M271.6,298.2H259v12.2c0,0-2.7,2-6.8,2c-4.1-0.1-6-2.2-6-2.2v-11.9h-11.9
		c0,0-1.5-1.5-1.9-5.5c-0.4-4,1.6-7.3,1.6-7.3h12.6v-12.6c0,0,2.6-1.4,6.3-1.3c3.7,0.1,6.5,1.5,6.5,1.5l-0.1,12.4h11.9
		c0,0,2.1,2.7,2.3,5.9C273.7,294.5,271.6,298.2,271.6,298.2z M329.4,312c-5.5,0-10-4.5-10-10c0-5.5,4.5-10,10-10c5.5,0,10,4.5,10,10
		C339.4,307.6,334.9,312,329.4,312z M329.4,284.6c-5.5,0-10-4.5-10-10c0-5.5,4.5-10,10-10c5.5,0,10,4.5,10,10
		C339.4,280.1,334.9,284.6,329.4,284.6z M354.3,299.3c-5.5,0-10-4.5-10-10c0-5.5,4.5-10,10-10c5.5,0,10,4.5,10,10
		C364.3,294.8,359.8,299.3,354.3,299.3z"/>
</g>
<rect x="480.2" y="279.7" class="st2" width="638.8" height="127.6"/>
<text transform="matrix(1 0 0 1 480.2354 354.1201)" class="st1 st3 st4">GameNews</text>
</svg>
